HIERARCHY
ROOT Hips
{
  OFFSET 5.72205e-005 65.662 3.42586
  CHANNELS 6 Xposition Yposition Zposition Zrotation Xrotation Yrotation
  JOINT Chest
  {
    OFFSET 0 8.7983 -4.7612
    CHANNELS 6 Xposition Yposition Zposition Zrotation Xrotation Yrotation
    JOINT Chest2
    {
      OFFSET 0 8.0291 0.4195
      CHANNELS 6 Xposition Yposition Zposition Zrotation Xrotation Yrotation
      JOINT Chest3
      {
        OFFSET 0 9.9351 -2.2114
        CHANNELS 6 Xposition Yposition Zposition Zrotation Xrotation Yrotation
        JOINT Neck
        {
          OFFSET 0 22.3885 -0.4656
          CHANNELS 6 Xposition Yposition Zposition Zrotation Xrotation Yrotation
          JOINT Head
          {
            OFFSET -0.0001 12.643 3.4389
            CHANNELS 6 Xposition Yposition Zposition Zrotation Xrotation Yrotation
            End Site
            {
              OFFSET 0.0001 17.6655 0.5274
            }
          }
        }
        JOINT LeftCollar
        {
          OFFSET 2.2603 21.606 7.4023
          CHANNELS 6 Xposition Yposition Zposition Zrotation Xrotation Yrotation
          JOINT LeftShoulder
          {
            OFFSET 13.5163 -1.1332 -5.0146
            CHANNELS 6 Xposition Yposition Zposition Zrotation Xrotation Yrotation
            JOINT LeftElbow
            {
              OFFSET -0.0995 -28.05 -0.2431
              CHANNELS 6 Xposition Yposition Zposition Zrotation Xrotation Yrotation
              JOINT LeftWrist
              {
                OFFSET 0.0679 -23.3996 -0.1402
                CHANNELS 6 Xposition Yposition Zposition Zrotation Xrotation Yrotation
                JOINT LeftFinger1
                {
                  OFFSET 0.7932 -9.069 2.5189
                  CHANNELS 6 Xposition Yposition Zposition Zrotation Xrotation Yrotation
                  JOINT LeftFinger11
                  {
                    OFFSET -0.8272 -3.3923 0.5977
                    CHANNELS 6 Xposition Yposition Zposition Zrotation Xrotation Yrotation
                    JOINT LeftFinger12
                    {
                      OFFSET -0.5649 -2.3158 0.4082
                      CHANNELS 6 Xposition Yposition Zposition Zrotation Xrotation Yrotation
                      End Site
                      {
                        OFFSET -0.4919 -1.6479 0.2673
                      }
                    }
                  }
                }
                JOINT LeftFinger2
                {
                  OFFSET 0.9159 -9.2044 0.2193
                  CHANNELS 6 Xposition Yposition Zposition Zrotation Xrotation Yrotation
                  JOINT LeftFinger21
                  {
                    OFFSET 0.0117 -4.1944 -0.0248
                    CHANNELS 6 Xposition Yposition Zposition Zrotation Xrotation Yrotation
                    JOINT LeftFinger22
                    {
                      OFFSET 0.0071 -2.3249 -0.0142
                      CHANNELS 6 Xposition Yposition Zposition Zrotation Xrotation Yrotation
                      End Site
                      {
                        OFFSET -0.1475 -2.0882 0.0028
                      }
                    }
                  }
                }
                JOINT LeftFinger3
                {
                  OFFSET 0.6113 -8.7231 -2.0637
                  CHANNELS 6 Xposition Yposition Zposition Zrotation Xrotation Yrotation
                  JOINT LeftFinger31
                  {
                    OFFSET -0.1927 -3.8059 -0.2383
                    CHANNELS 6 Xposition Yposition Zposition Zrotation Xrotation Yrotation
                    JOINT LeftFinger32
                    {
                      OFFSET -0.1091 -2.1688 -0.1362
                      CHANNELS 6 Xposition Yposition Zposition Zrotation Xrotation Yrotation
                      End Site
                      {
                        OFFSET -0.2358 -1.9176 -0.0906
                      }
                    }
                  }
                }
                JOINT LeftFinger4
                {
                  OFFSET -0.6151 -8.0947 -3.5641
                  CHANNELS 6 Xposition Yposition Zposition Zrotation Xrotation Yrotation
                  JOINT LeftFinger41
                  {
                    OFFSET -0.4882 -2.341 -0.6462
                    CHANNELS 6 Xposition Yposition Zposition Zrotation Xrotation Yrotation
                    JOINT LeftFinger42
                    {
                      OFFSET -0.3575 -1.7167 -0.4742
                      CHANNELS 6 Xposition Yposition Zposition Zrotation Xrotation Yrotation
                      End Site
                      {
                        OFFSET -0.4187 -1.5237 -0.3496
                      }
                    }
                  }
                }
                JOINT LeftFinger0
                {
                  OFFSET -1.42 -1.8761 1.4223
                  CHANNELS 6 Xposition Yposition Zposition Zrotation Xrotation Yrotation
                  JOINT LeftFinger01
                  {
                    OFFSET -1.1471 -3.4929 2.6334
                    CHANNELS 6 Xposition Yposition Zposition Zrotation Xrotation Yrotation
                    JOINT LeftFinger02
                    {
                      OFFSET -0.823 -2.3 1.6571
                      CHANNELS 6 Xposition Yposition Zposition Zrotation Xrotation Yrotation
                      End Site
                      {
                        OFFSET -0.5822 -1.6914 1.1582
                      }
                    }
                  }
                }
              }
            }
          }
        }
        JOINT RightCollar
        {
          OFFSET -2.2603 21.606 7.4023
          CHANNELS 6 Xposition Yposition Zposition Zrotation Xrotation Yrotation
          JOINT RightShoulder
          {
            OFFSET -13.5187 -1.1334 -5.0155
            CHANNELS 6 Xposition Yposition Zposition Zrotation Xrotation Yrotation
            JOINT RightElbow
            {
              OFFSET 0.0994 -28.0499 -0.2431
              CHANNELS 6 Xposition Yposition Zposition Zrotation Xrotation Yrotation
              JOINT RightWrist
              {
                OFFSET -0.0679 -23.3996 -0.1402
                CHANNELS 6 Xposition Yposition Zposition Zrotation Xrotation Yrotation
                JOINT RightFinger1
                {
                  OFFSET -0.7932 -9.0691 2.5189
                  CHANNELS 6 Xposition Yposition Zposition Zrotation Xrotation Yrotation
                  JOINT RightFinger11
                  {
                    OFFSET 0.8272 -3.3923 0.5977
                    CHANNELS 6 Xposition Yposition Zposition Zrotation Xrotation Yrotation
                    JOINT RightFinger12
                    {
                      OFFSET 0.565 -2.3158 0.4082
                      CHANNELS 6 Xposition Yposition Zposition Zrotation Xrotation Yrotation
                      End Site
                      {
                        OFFSET 0.4919 -1.6479 0.2673
                      }
                    }
                  }
                }
                JOINT RightFinger2
                {
                  OFFSET -0.916 -9.2044 0.2193
                  CHANNELS 6 Xposition Yposition Zposition Zrotation Xrotation Yrotation
                  JOINT RightFinger21
                  {
                    OFFSET -0.0117 -4.1944 -0.0248
                    CHANNELS 6 Xposition Yposition Zposition Zrotation Xrotation Yrotation
                    JOINT RightFinger22
                    {
                      OFFSET -0.0071 -2.3249 -0.0142
                      CHANNELS 6 Xposition Yposition Zposition Zrotation Xrotation Yrotation
                      End Site
                      {
                        OFFSET 0.1475 -2.0882 0.0028
                      }
                    }
                  }
                }
                JOINT RightFinger3
                {
                  OFFSET -0.6113 -8.7231 -2.0637
                  CHANNELS 6 Xposition Yposition Zposition Zrotation Xrotation Yrotation
                  JOINT RightFinger31
                  {
                    OFFSET 0.1927 -3.8059 -0.2383
                    CHANNELS 6 Xposition Yposition Zposition Zrotation Xrotation Yrotation
                    JOINT RightFinger32
                    {
                      OFFSET 0.1091 -2.1688 -0.1362
                      CHANNELS 6 Xposition Yposition Zposition Zrotation Xrotation Yrotation
                      End Site
                      {
                        OFFSET 0.2358 -1.9176 -0.0906
                      }
                    }
                  }
                }
                JOINT RightFinger4
                {
                  OFFSET 0.6151 -8.0947 -3.564
                  CHANNELS 6 Xposition Yposition Zposition Zrotation Xrotation Yrotation
                  JOINT RightFinger41
                  {
                    OFFSET 0.4882 -2.341 -0.6462
                    CHANNELS 6 Xposition Yposition Zposition Zrotation Xrotation Yrotation
                    JOINT RightFinger42
                    {
                      OFFSET 0.3574 -1.7166 -0.4742
                      CHANNELS 6 Xposition Yposition Zposition Zrotation Xrotation Yrotation
                      End Site
                      {
                        OFFSET 0.4187 -1.5237 -0.3496
                      }
                    }
                  }
                }
                JOINT RightFinger0
                {
                  OFFSET 1.4199 -1.8761 1.4221
                  CHANNELS 6 Xposition Yposition Zposition Zrotation Xrotation Yrotation
                  JOINT RightFinger01
                  {
                    OFFSET 1.1472 -3.4929 2.6336
                    CHANNELS 6 Xposition Yposition Zposition Zrotation Xrotation Yrotation
                    JOINT RightFinger02
                    {
                      OFFSET 0.8229 -2.3 1.6571
                      CHANNELS 6 Xposition Yposition Zposition Zrotation Xrotation Yrotation
                      End Site
                      {
                        OFFSET 0.5822 -1.6914 1.1582
                      }
                    }
                  }
                }
              }
            }
          }
        }
      }
    }
  }
  JOINT RightHip
  {
    OFFSET -9.412 3.9771 -0.7758
    CHANNELS 6 Xposition Yposition Zposition Zrotation Xrotation Yrotation
    JOINT RightKnee
    {
      OFFSET -0.7531 -40.938 0
      CHANNELS 6 Xposition Yposition Zposition Zrotation Xrotation Yrotation
      JOINT RightAnkle
      {
        OFFSET 0 -40.1986 0
        CHANNELS 6 Xposition Yposition Zposition Zrotation Xrotation Yrotation
        JOINT RightToe
        {
          OFFSET 0 -4.4182 9.239
          CHANNELS 6 Xposition Yposition Zposition Zrotation Xrotation Yrotation
          End Site
          {
            OFFSET 0 0 6.1981
          }
        }
      }
    }
  }
  JOINT LeftHip
  {
    OFFSET 9.4119 3.9773 -0.7758
    CHANNELS 6 Xposition Yposition Zposition Zrotation Xrotation Yrotation
    JOINT LeftKnee
    {
      OFFSET 0.7532 -40.9383 0
      CHANNELS 6 Xposition Yposition Zposition Zrotation Xrotation Yrotation
      JOINT LeftAnkle
      {
        OFFSET 0 -40.1986 0
        CHANNELS 6 Xposition Yposition Zposition Zrotation Xrotation Yrotation
        JOINT LeftToe
        {
          OFFSET 0 -4.4182 9.239
          CHANNELS 6 Xposition Yposition Zposition Zrotation Xrotation Yrotation
          End Site
          {
            OFFSET 0 0 6.1981
          }
        }
      }
    }
  }
}
MOTION
Frames:	4
Frame Time:	0.0333333
-0.000114079 7.07698 62.529 180 -85.9956 180 0 8.7983 -4.7612 -0.0422631 1.40612 -0.099251 -6.93889e-018 8.0291 0.4195 -0.0821257 2.8123 -0.197552 -1.38778e-017 9.9351 -2.2114 -0.082126 2.81229 -0.197553 -2.77556e-017 22.3885 -0.4656 -1.10137e-006 7.95713 -3.76646e-006 -0.0001 12.643 3.4389 -5.39299e-008 -13.9914 -1.65837e-008 2.2603 21.606 7.4023 -1.65616 -15.2304 -4.63206 13.5163 -1.1332 -5.0146 109.917 -60.4132 31.507 -0.0995 -28.05 -0.2431 -18.6216 -44.155 20.4215 0.0679 -23.3996 -0.1402 -8.14896 12.7057 50.4844 0.7932 -9.069 2.5189 4.82053e-015 -3.97569e-016 -7.95139e-016 -0.8272 -3.3923 0.5977 -1.27735e-008 1.82285e-006 -4.23993e-007 -0.5649 -2.3158 0.4082 -7.45443e-017 -7.95139e-016 -0 0.9159 -9.2044 0.2193 4.82053e-015 -3.97569e-016 -7.95139e-016 0.0117 -4.1944 -0.0248 -0.012796 0.00232259 8.71656e-005 0.0071 -2.3249 -0.0142 -5.96354e-016 5.96354e-016 7.95139e-016 0.6113 -8.7231 -2.0637 4.82053e-015 -3.97569e-016 -7.95139e-016 -0.1927 -3.8059 -0.2383 -0.0160483 0.00299627 0.000855919 -0.1091 -2.1688 -0.1362 3.40419e-015 1.98785e-016 -7.95139e-016 -0.6151 -8.0947 -3.5641 4.82053e-015 -3.97569e-016 -7.95139e-016 -0.4882 -2.341 -0.6462 -0.012602 0.00312217 0.00282705 -0.3575 -1.7167 -0.4742 -2.25693e-006 -6.24802e-007 9.155e-007 -1.42 -1.8761 1.4223 4.82053e-015 -3.97569e-016 -7.95139e-016 -1.1471 -3.4929 2.6334 -1.27735e-008 1.82285e-006 -4.23993e-007 -0.823 -2.3 1.6571 -7.45443e-017 -7.95139e-016 -0 -2.2603 21.606 7.4023 0.800494 -14.9143 -1.22036 -13.5187 -1.1334 -5.0155 -113.207 -63.6503 -36.1087 0.0994 -28.0499 -0.2431 19.1448 -44.0861 -20.3124 -0.0679 -23.3996 -0.1402 9.47178 12.9029 -50.4041 -0.7932 -9.0691 2.5189 3.87535e-009 -4.36754e-010 4.23837e-007 0.8272 -3.3923 0.5977 1.1626e-008 6.43601e-007 1.27151e-006 0.565 -2.3158 0.4082 3.87534e-009 -4.36805e-010 4.23837e-007 -0.916 -9.2044 0.2193 3.87535e-009 -4.36754e-010 4.23837e-007 -0.0117 -4.1944 -0.0248 0.012954 0.00232075 -8.24772e-005 -0.0071 -2.3249 -0.0142 3.84668e-009 9.67054e-007 4.23837e-007 -0.6113 -8.7231 -2.0637 3.87535e-009 -4.36754e-010 4.23837e-007 0.1927 -3.8059 -0.2383 0.0163341 0.0030341 -0.000872802 0.1091 -2.1688 -0.1362 -1.63384e-006 8.36686e-007 9.18247e-007 0.6151 -8.0947 -3.564 3.87535e-009 -4.36754e-010 4.23837e-007 0.4882 -2.341 -0.6462 0.0146069 0.00368318 -0.00326628 0.3574 -1.7166 -0.4742 3.83514e-009 8.59658e-007 4.2384e-007 1.4199 -1.8761 1.4221 3.87535e-009 -4.36754e-010 4.23837e-007 1.1472 -3.4929 2.6336 1.1626e-008 6.43601e-007 1.27151e-006 0.8229 -2.3 1.6571 3.87534e-009 -4.36805e-010 4.23837e-007 -9.412 3.9771 -0.7758 -88.6524 -51.4677 -119.315 -0.7531 -40.938 -7.10543e-015 6.39443 -0.0409529 9.21256 0 -40.1986 0 -13.922 12.3914 17.9965 -7.99361e-015 -4.4182 9.239 4.11929e-007 4.50474e-008 -2.08111e-006 9.4119 3.9773 -0.7758 88.8227 -51.4169 119.447 0.7532 -40.9383 0 -6.3992 0.210048 -9.189 0 -40.1986 7.10543e-015 13.9379 12.2585 -17.9868 0 -4.4182 9.239 -2.94638e-006 -1.4256e-006 1.836e-006 
-0.000116105 7.09393 62.5226 -180 -85.9956 -180 1.35525e-020 8.7983 -4.7612 -0.0421221 1.36613 -0.0993363 0 8.0291 0.4195 -0.0819094 2.7323 -0.197753 -1.38778e-017 9.9351 -2.2114 -0.0819093 2.73229 -0.197753 2.77556e-017 22.3885 -0.4656 -4.09312e-007 8.91571 -1.4506e-006 -0.0001 12.643 3.4389 -2.5776e-009 -12.9814 -4.7521e-008 2.2603 21.606 7.4023 -1.60376 -14.9011 -5.1095 13.5163 -1.1332 -5.0146 109.919 -60.4138 31.5089 -0.0995 -28.05 -0.2431 -18.1688 -43.4208 20.7724 0.0679 -23.3996 -0.1402 -8.47111 12.4361 50.3915 0.7932 -9.069 2.5189 -2.349e-008 9.64681e-007 -8.48001e-007 -0.8272 -3.3923 0.5977 -1.1745e-008 1.0612e-007 -4.24e-007 -0.5649 -2.3158 0.4082 -1.1745e-008 8.58562e-007 -4.24e-007 0.9159 -9.2044 0.2193 -2.349e-008 9.64681e-007 -8.48001e-007 0.0117 -4.1944 -0.0248 -0.0128217 0.00232698 8.31933e-005 0.0071 -2.3249 -0.0142 2.70844e-015 1.04961e-007 -7.95139e-016 0.6113 -8.7231 -2.0637 -2.349e-008 9.64681e-007 -8.48001e-007 -0.1927 -3.8059 -0.2383 -0.0160543 0.00299791 0.000856734 -0.1091 -2.1688 -0.1362 -5.88224e-006 -4.13973e-007 -3.93879e-007 -0.6151 -8.0947 -3.5641 -2.349e-008 9.64681e-007 -8.48001e-007 -0.4882 -2.341 -0.6462 -0.012542 0.00311446 0.00281944 -0.3575 -1.7167 -0.4742 8.34896e-015 9.64685e-007 -7.95139e-016 -1.42 -1.8761 1.4223 -2.349e-008 9.64681e-007 -8.48001e-007 -1.1471 -3.4929 2.6334 -1.1745e-008 1.0612e-007 -4.24e-007 -0.823 -2.3 1.6571 -1.1745e-008 8.58562e-007 -4.24e-007 -2.2603 21.606 7.4023 0.746623 -14.5935 -0.729935 -13.5187 -1.1334 -5.0155 -113.208 -63.6504 -36.109 0.0994 -28.0499 -0.2431 18.695 -43.3512 -20.6612 -0.0679 -23.3996 -0.1402 9.78978 12.6405 -50.2993 -0.7932 -9.0691 2.5189 2.82533e-009 9.67267e-007 4.23818e-007 0.8272 -3.3923 0.5977 3.60297e-016 0 -1.59028e-015 0.565 -2.3158 0.4082 5.65067e-009 1.06842e-007 8.47636e-007 -0.916 -9.2044 0.2193 2.82533e-009 9.67267e-007 4.23818e-007 -0.0117 -4.1944 -0.0248 0.0129612 0.00231723 -8.62626e-005 -0.0071 -2.3249 -0.0142 -1.63496e-006 1.26851e-006 9.14892e-007 -0.6113 -8.7231 -2.0637 2.82533e-009 9.67267e-007 4.23818e-007 0.1927 -3.8059 -0.2383 0.0163433 0.00303772 -0.000872605 0.1091 -2.1688 -0.1362 -7.06111e-006 -3.18423e-007 -1.37869e-007 0.6151 -8.0947 -3.564 2.82533e-009 9.67267e-007 4.23818e-007 0.4882 -2.341 -0.6462 0.0146152 0.00368777 -0.00327129 0.3574 -1.7166 -0.4742 -2.78503e-009 1.82736e-006 -4.23821e-007 1.4199 -1.8761 1.4221 2.82533e-009 9.67267e-007 4.23818e-007 1.1472 -3.4929 2.6336 3.60297e-016 0 -1.59028e-015 0.8229 -2.3 1.6571 5.65067e-009 1.06842e-007 8.47636e-007 -9.412 3.9771 -0.7758 -88.9665 -51.4735 -119.535 -0.7531 -40.938 7.10543e-015 6.66501 0.305205 9.13055 0 -40.1986 0 -13.9866 11.9644 17.9666 7.10543e-015 -4.4182 9.239 2.70328e-006 2.48262e-007 -6.04436e-007 9.4119 3.9773 -0.7758 88.771 -51.551 119.369 0.7532 -40.9383 0 -6.66964 0.0288671 -9.1635 0 -40.1986 0 13.9655 12.0963 -17.983 1.77636e-015 -4.4182 9.239 6.99668e-006 -2.09431e-006 -1.59471e-006 
-0.000121291 7.11095 62.5161 -180 -85.9956 -180 0 8.7983 -4.7612 -0.0419807 1.32607 -0.0994206 -6.93889e-018 8.0291 0.4195 -0.0816913 2.65222 -0.197948 0 9.9351 -2.2114 -0.0816916 2.65225 -0.197949 -2.77556e-017 22.3885 -0.4656 -1.67345e-006 9.87416 -6.21717e-006 -0.0001 12.643 3.4389 7.51019e-008 -11.9717 -1.63207e-007 2.2603 21.606 7.4023 -1.54861 -14.5722 -5.58649 13.5163 -1.1332 -5.0146 109.914 -60.4123 31.5044 -0.0995 -28.05 -0.2431 -17.7268 -42.6884 21.1095 0.0679 -23.3996 -0.1402 -8.79336 12.1671 50.2971 0.7932 -9.069 2.5189 -2.14169e-008 9.64613e-007 -8.48009e-007 -0.8272 -3.3923 0.5977 2.14169e-008 2.57931e-006 8.48009e-007 -0.5649 -2.3158 0.4082 -1.07084e-008 8.58696e-007 -4.24004e-007 0.9159 -9.2044 0.2193 -2.14169e-008 9.64613e-007 -8.48009e-007 0.0117 -4.1944 -0.0248 -0.0128084 0.00232541 8.78255e-005 0.0071 -2.3249 -0.0142 -2.13609e-008 9.6494e-007 -8.4801e-007 0.6113 -8.7231 -2.0637 -2.14169e-008 9.64613e-007 -8.48009e-007 -0.1927 -3.8059 -0.2383 -0.0160394 0.00299427 0.000855894 -0.1091 -2.1688 -0.1362 -2.73329e-015 6.42686e-007 -7.95139e-016 -0.6151 -8.0947 -3.5641 -2.14169e-008 9.64613e-007 -8.48009e-007 -0.4882 -2.341 -0.6462 -0.0126418 0.00313892 0.00283836 -0.3575 -1.7167 -0.4742 -1.06746e-008 1.06241e-007 -4.24007e-007 -1.42 -1.8761 1.4223 -2.14169e-008 9.64613e-007 -8.48009e-007 -1.1471 -3.4929 2.6334 2.14169e-008 2.57931e-006 8.48009e-007 -0.823 -2.3 1.6571 -1.07084e-008 8.58696e-007 -4.24004e-007 -2.2603 21.606 7.4023 0.689999 -14.2732 -0.239963 -13.5187 -1.1334 -5.0155 -113.205 -63.65 -36.1071 0.0994 -28.0499 -0.2431 18.2565 -42.6156 -20.9976 -0.0679 -23.3996 -0.1402 10.1079 12.3787 -50.1932 -0.7932 -9.0691 2.5189 9.29318e-015 -1.98785e-016 -7.95139e-016 0.8272 -3.3923 0.5977 1.14723e-005 1.94474e-006 -1.71919e-006 0.565 -2.3158 0.4082 3.27932e-006 -1.15863e-006 -1.27945e-007 -0.916 -9.2044 0.2193 9.29318e-015 -1.98785e-016 -7.95139e-016 -0.0117 -4.1944 -0.0248 0.0129489 0.0023158 -8.56279e-005 -0.0071 -2.3249 -0.0142 6.02664e-006 -1.16179e-006 -6.71556e-007 -0.6113 -8.7231 -2.0637 9.29318e-015 -1.98785e-016 -7.95139e-016 0.1927 -3.8059 -0.2383 0.0163308 0.00303635 -0.000873341 0.1091 -2.1688 -0.1362 4.3879e-006 1.23099e-007 -1.83586e-007 0.6151 -8.0947 -3.564 9.29318e-015 -1.98785e-016 -7.95139e-016 0.4882 -2.341 -0.6462 0.0145883 0.00368033 -0.00326405 0.3574 -1.7166 -0.4742 6.55818e-006 -4.6274e-007 -2.55361e-007 1.4199 -1.8761 1.4221 9.29318e-015 -1.98785e-016 -7.95139e-016 1.1472 -3.4929 2.6336 1.14723e-005 1.94474e-006 -1.71919e-006 0.8229 -2.3 1.6571 3.27932e-006 -1.15863e-006 -1.27945e-007 -9.412 3.9771 -0.7758 -88.831 -51.638 -119.389 -0.7531 -40.938 0 6.93475 0.00297901 9.11841 7.10543e-015 -40.1986 -7.10543e-015 -14.0056 11.8622 17.9697 8.88179e-016 -4.4182 9.239 2.63097e-006 -1.76253e-007 -2.04112e-007 9.4119 3.9773 -0.7758 89.0724 -51.5618 119.581 0.7532 -40.9383 7.10543e-015 -6.93958 0.35534 -9.08233 0 -40.1986 -7.10543e-015 14.0286 11.6791 -17.9558 2.66454e-015 -4.4182 9.239 6.16232e-015 -1.26548e-006 -1.59028e-015 
-0.000127906 7.12802 62.5096 -180 -85.9956 -180 0 8.7983 -4.7612 -0.0418398 1.28609 -0.0995057 0 8.0291 0.4195 -0.0814754 2.57223 -0.198147 0 9.9351 -2.2114 -0.0814754 2.57222 -0.198147 -2.77556e-017 22.3885 -0.4656 -8.75447e-007 10.832 -3.61478e-006 -0.0001 12.643 3.4389 -8.14811e-008 -10.9624 -4.21263e-008 2.2603 21.606 7.4023 -1.49071 -14.244 -6.06302 13.5163 -1.1332 -5.0146 109.926 -60.4158 31.5149 -0.0995 -28.05 -0.2431 -17.2981 -41.946 21.4385 0.0679 -23.3996 -0.1402 -9.11569 11.8987 50.2013 0.793201 -9.069 2.5189 3.22773e-006 1.95581e-006 -6.20291e-007 -0.827201 -3.3923 0.5977 -1.93276e-008 1.05376e-007 -8.48009e-007 -0.5649 -2.3158 0.4082 -9.66378e-009 9.65886e-007 -4.24005e-007 0.915901 -9.2044 0.2193 3.22773e-006 1.95581e-006 -6.20291e-007 0.0117 -4.1944 -0.0248 -0.012836 0.00232563 8.46212e-005 0.0071 -2.3249 -0.0142 -9.6357e-009 1.06081e-007 -4.24005e-007 0.6113 -8.7231 -2.0637 3.22773e-006 1.95581e-006 -6.20291e-007 -0.1927 -3.8059 -0.2383 -0.016035 0.00299038 0.000854599 -0.1091 -2.1688 -0.1362 -9.62808e-009 1.06361e-007 -4.24006e-007 -0.6151 -8.0947 -3.5641 3.22773e-006 1.95581e-006 -6.20291e-007 -0.4882 -2.341 -0.6462 -0.0126076 0.00312344 0.00282701 -0.3575 -1.7167 -0.4742 -2.95692e-015 1.05384e-007 7.95139e-016 -1.42 -1.8761 1.4223 3.22773e-006 1.95581e-006 -6.20291e-007 -1.1471 -3.4929 2.6334 -1.93276e-008 1.05376e-007 -8.48009e-007 -0.823001 -2.3 1.6571 -9.66378e-009 9.65886e-007 -4.24005e-007 -2.2603 21.606 7.4023 0.630645 -13.9535 0.249579 -13.5187 -1.1334 -5.0155 -113.207 -63.6503 -36.1087 0.0994 -28.0499 -0.2431 17.8295 -41.8767 -21.323 -0.0679001 -23.3996 -0.1402 10.4262 12.1176 -50.0857 -0.793201 -9.0691 2.5189 -1.64076e-006 2.45627e-006 -1.21069e-006 0.827201 -3.3923 0.5977 1.53089e-005 -2.18289e-006 -5.43814e-007 0.565 -2.3158 0.4082 -7.02093e-010 -7.52516e-007 -4.23767e-007 -0.916001 -9.2044 0.2193 -1.64076e-006 2.45627e-006 -1.21069e-006 -0.0117 -4.1944 -0.0248 0.012931 0.00231128 -8.58103e-005 -0.00710001 -2.3249 -0.0142 -1.34673e-009 -1.07338e-007 -8.47535e-007 -0.611301 -8.7231 -2.0637 -1.64076e-006 2.45627e-006 -1.21069e-006 0.1927 -3.8059 -0.2383 0.0163301 0.00303425 -0.000874213 0.1091 -2.1688 -0.1362 -1.32993e-009 -9.67441e-007 -8.47536e-007 0.615101 -8.0947 -3.564 -1.64076e-006 2.45627e-006 -1.21069e-006 0.4882 -2.341 -0.6462 0.014588 0.00367818 -0.0032631 0.3574 -1.7166 -0.4742 -1.07522e-006 -1.3713e-006 -7.86148e-007 1.4199 -1.8761 1.4221 -1.64076e-006 2.45627e-006 -1.21069e-006 1.1472 -3.4929 2.6336 1.53089e-005 -2.18289e-006 -5.43814e-007 0.822901 -2.3 1.6571 -7.02093e-010 -7.52516e-007 -4.23767e-007 -9.412 3.9771 -0.7758 -89.1502 -51.6429 -119.618 -0.7531 -40.938 -7.10543e-015 7.20485 0.354375 9.0333 0 -40.1986 0 -14.0708 11.4318 17.943 3.55271e-015 -4.4182 9.239 -6.87938e-006 -4.70608e-007 1.69772e-006 9.4119 3.9773 -0.7758 89.1285 -51.6576 119.595 0.7532 -40.9383 0 -7.21203 0.329297 -9.03915 0 -40.1986 -7.10543e-015 14.0685 11.4387 -17.9473 5.32907e-015 -4.4182 9.239 7.33641e-008 8.39994e-007 -4.17896e-007 
